<svg version="1.1" id="Layer_1" xmlns="http://www.w3.org/2000/svg" xmlns:xlink="http://www.w3.org/1999/xlink" x="0px" y="0px"
	 width="100%" viewBox="0 0 1024 1024" enable-background="new 0 0 1024 1024" xml:space="preserve">
<path fill="#000000" opacity="1.000000" stroke="none" 
	d="
M668.000000,1025.000000 
	C445.333344,1025.000000 223.166672,1025.000000 1.000000,1025.000000 
	C1.000000,683.666687 1.000000,342.333344 1.000000,1.000000 
	C342.333344,1.000000 683.666687,1.000000 1025.000000,1.000000 
	C1025.000000,342.333344 1025.000000,683.666687 1025.000000,1025.000000 
	C906.166687,1025.000000 787.333313,1025.000000 668.000000,1025.000000 
M361.853943,340.865845 
	C361.853943,340.865845 361.809998,340.768921 361.097595,340.866394 
	C358.938446,341.820526 356.779297,342.774658 353.897003,343.886627 
	C318.454041,356.732330 286.762573,375.306335 262.690796,404.990570 
	C229.653305,445.730865 218.935364,492.419525 232.163849,542.667480 
	C248.796814,605.847229 292.204681,643.540344 354.423676,660.166077 
	C377.813324,666.416077 401.905640,667.002319 425.813843,663.643005 
	C475.329376,656.685791 516.534058,632.985657 553.035828,598.920776 
	C554.483093,597.543152 555.930298,596.165588 558.175232,594.028687 
	C552.546021,594.845764 548.319031,595.768127 544.051697,596.028931 
	C515.445862,597.776917 488.728546,590.783203 463.394440,577.975464 
	C437.181335,564.723450 414.884827,546.403870 396.339111,523.764832 
	C363.446350,483.612122 343.212372,438.816071 349.170410,385.475830 
	C350.350769,374.908417 354.212036,364.622620 357.104431,354.281769 
	C357.593140,352.534607 359.445770,351.169006 360.072845,350.425171 
	C360.004730,353.754211 360.173431,357.107910 359.829681,360.408264 
	C357.762085,380.259705 358.883911,400.028290 362.464355,419.547058 
	C369.928925,460.240479 388.411835,495.849091 414.235321,528.629883 
	C417.227692,532.286926 420.220062,535.943909 423.808960,540.330017 
	C423.808960,538.571289 423.874634,537.923462 423.799408,537.292419 
	C421.458923,517.661804 424.323547,498.529999 429.621429,479.700806 
	C437.606995,451.319305 452.951111,427.070068 472.561066,405.433350 
	C509.709869,364.445038 554.244080,337.331635 610.733887,333.560303 
	C633.892090,332.014252 656.498840,334.762726 677.893311,344.520142 
	C679.476746,345.242340 681.193115,345.673035 684.107666,346.670410 
	C682.788635,343.269012 681.935059,341.067841 681.009583,338.123566 
	C666.161621,298.006470 641.615723,265.233124 606.153809,241.179688 
	C573.667786,219.144745 537.587402,209.624863 498.473541,214.229263 
	C465.251556,218.140060 436.209167,231.815994 411.717987,254.828751 
	C386.839081,278.205719 370.270325,306.381653 362.058899,339.917023 
	C361.956818,340.244171 361.854736,340.571350 361.853943,340.865845 
M352.047455,668.705322 
	C365.475830,704.633606 386.559296,735.146179 417.260437,758.353577 
	C453.607239,785.828735 494.812897,796.135437 539.623718,788.475342 
	C584.928955,780.730591 619.575745,755.567871 646.099121,718.610840 
	C657.855408,702.229736 665.957703,684.088196 672.645020,664.881958 
	C675.852478,663.644897 679.059937,662.407837 682.870972,660.728271 
	C687.144287,659.199646 691.501221,657.869324 695.677551,656.110413 
	C725.170593,643.689026 750.571411,625.626648 770.700134,600.608398 
	C801.230896,562.661316 812.565308,519.214844 802.249146,471.897614 
	C789.182678,411.965790 751.886536,371.443115 694.202454,351.381927 
	C657.457947,338.602936 619.425232,340.216980 582.063538,350.288818 
	C546.606262,359.847260 515.644470,377.853973 488.255188,403.263794 
	C487.654541,403.941559 487.053894,404.619293 485.864685,405.961151 
	C488.991821,405.961151 491.273468,405.940094 493.554626,405.964355 
	C515.730774,406.200287 537.189636,410.381653 557.583496,418.977295 
	C617.660400,444.298523 657.521729,488.496277 678.112061,550.089722 
	C688.632446,581.560242 691.029419,613.458252 680.054321,645.443481 
	C678.551941,649.822021 675.963928,653.828003 673.336914,657.263550 
	C674.495850,648.205505 676.296143,639.176208 676.703979,630.084473 
	C678.567505,588.542297 668.244690,549.775391 648.762207,513.330261 
	C640.362915,497.617950 630.501953,482.839996 617.726318,469.384583 
	C617.109375,468.700897 616.492432,468.017181 614.974121,466.334625 
	C615.434387,471.298981 615.900391,475.001190 616.102051,478.717743 
	C617.318848,501.143677 612.061584,522.454346 602.682678,542.426453 
	C578.048584,594.884460 539.624390,634.188599 486.800201,658.458862 
	C443.513184,678.347290 399.236267,679.453125 354.629578,662.384460 
	C353.026794,661.771179 351.336639,661.386353 348.833069,660.640625 
	C349.814331,662.659668 350.373718,663.810730 351.038757,665.773071 
	C351.235809,666.277466 351.432861,666.781799 351.532288,667.565002 
	C351.590851,667.780518 351.729919,667.909790 352.047455,668.705322 
z"/>
<path fill="#E78931" opacity="1.000000" stroke="none" 
	d="
M552.452332,599.119446 
	C516.534058,632.985657 475.329376,656.685791 425.813843,663.643005 
	C401.905640,667.002319 377.813324,666.416077 354.423676,660.166077 
	C292.204681,643.540344 248.796814,605.847229 232.163849,542.667480 
	C218.935364,492.419525 229.653305,445.730865 262.690796,404.990570 
	C286.762573,375.306335 318.454041,356.732330 354.468262,344.033112 
	C354.686523,344.947205 354.541229,345.986938 353.947906,346.439758 
	C348.691315,350.452026 343.202423,354.171570 338.068542,358.331024 
	C312.184692,379.301758 299.528931,407.218689 297.168732,439.787415 
	C294.981018,469.976196 302.406982,498.126892 317.619324,524.400085 
	C335.652161,555.544617 360.829285,579.279175 392.204010,596.221741 
	C420.172516,611.324890 450.112183,619.665894 482.326141,618.042053 
	C497.206268,617.291931 511.777985,615.134277 525.727783,609.679626 
	C534.648499,606.191528 543.544983,602.641663 552.452332,599.119446 
z"/>
<path fill="#F8CC46" opacity="1.000000" stroke="none" 
	d="
M414.037048,527.985107 
	C388.411835,495.849091 369.928925,460.240479 362.464355,419.547058 
	C358.883911,400.028290 357.762085,380.259705 359.829681,360.408264 
	C360.173431,357.107910 360.004730,353.754211 360.531494,349.771942 
	C361.263458,346.335449 361.536743,343.552185 361.809998,340.768921 
	C361.809998,340.768921 361.853943,340.865845 362.037567,340.758362 
	C362.328674,340.330475 362.436157,340.010040 362.543640,339.689606 
	C370.270325,306.381653 386.839081,278.205719 411.717987,254.828751 
	C436.209167,231.815994 465.251556,218.140060 498.473541,214.229263 
	C537.587402,209.624863 573.667786,219.144745 606.153809,241.179688 
	C641.615723,265.233124 666.161621,298.006470 680.954468,338.739960 
	C680.676880,339.581573 680.332336,340.036072 680.252502,339.993530 
	C679.841309,339.774506 679.403687,339.492950 679.144592,339.116638 
	C663.156860,315.896790 640.868896,301.016479 614.845154,291.539520 
	C592.702454,283.475891 569.848267,282.123535 546.541260,285.887726 
	C518.246887,290.457458 493.624634,302.853699 472.350403,321.435944 
	C449.837830,341.099884 431.840759,364.417297 419.790527,392.147034 
	C411.294525,411.697754 405.120850,431.918243 403.260803,453.021057 
	C401.094330,477.599945 403.510834,501.897278 413.872742,524.830261 
	C414.276611,525.724121 413.997742,526.926514 414.037048,527.985107 
z"/>
<path fill="#5587D9" opacity="1.000000" stroke="none" 
	d="
M488.863953,403.004547 
	C515.644470,377.853973 546.606262,359.847260 582.063538,350.288818 
	C619.425232,340.216980 657.457947,338.602936 694.202454,351.381927 
	C751.886536,371.443115 789.182678,411.965790 802.249146,471.897614 
	C812.565308,519.214844 801.230896,562.661316 770.700134,600.608398 
	C750.571411,625.626648 725.170593,643.689026 695.677551,656.110413 
	C691.501221,657.869324 687.144287,659.199646 682.269409,660.885254 
	C681.468628,660.425598 680.975586,659.344727 681.112061,659.258301 
	C695.302612,650.275574 706.294495,638.064819 715.411926,624.234619 
	C737.898560,590.124512 741.210449,553.233765 729.688171,514.728882 
	C719.667725,481.242920 700.146362,454.049500 673.395508,431.692291 
	C639.802002,403.616241 601.140503,389.132294 557.558289,388.195923 
	C538.114502,387.778168 519.200195,391.698303 501.045868,398.938690 
	C497.076141,400.521912 492.929260,401.660950 488.863953,403.004547 
z"/>
<path fill="#3CB4C9" opacity="1.000000" stroke="none" 
	d="
M617.957336,470.024811 
	C630.501953,482.839996 640.362915,497.617950 648.762207,513.330261 
	C668.244690,549.775391 678.567505,588.542297 676.703979,630.084473 
	C676.296143,639.176208 674.495850,648.205505 673.651978,657.634155 
	C673.966980,658.004761 673.969299,657.916016 673.608704,658.010559 
	C673.073486,659.086426 672.898865,660.067749 672.503479,661.304993 
	C672.148071,662.674927 672.013428,663.788879 671.878784,664.902893 
	C665.957703,684.088196 657.855408,702.229736 646.099121,718.610840 
	C619.575745,755.567871 584.928955,780.730591 539.623718,788.475342 
	C494.812897,796.135437 453.607239,785.828735 417.260437,758.353577 
	C386.559296,735.146179 365.475830,704.633606 351.994568,668.197266 
	C351.902130,667.505127 351.798187,667.370789 351.629944,667.286194 
	C351.432861,666.781799 351.235809,666.277466 351.329407,665.441711 
	C353.144470,666.352417 354.844452,667.432739 356.162994,668.864380 
	C361.991150,675.192749 367.364410,681.978088 373.526703,687.954224 
	C402.515900,716.067932 437.736786,726.598145 477.292267,722.732117 
	C512.981262,719.244019 543.626526,703.403809 570.135864,680.034241 
	C593.077576,659.809631 611.278320,635.718811 623.028503,607.099182 
	C634.908875,578.162170 637.426880,548.201050 633.332703,517.498291 
	C631.169434,501.275787 625.348999,486.221069 617.704102,471.825317 
	C617.474121,471.392151 617.859070,470.632324 617.957336,470.024811 
z"/>
<path fill="#D26A26" opacity="1.000000" stroke="none" 
	d="
M361.453796,340.817657 
	C361.536743,343.552185 361.263458,346.335449 360.829224,349.372925 
	C359.445770,351.169006 357.593140,352.534607 357.104431,354.281769 
	C354.212036,364.622620 350.350769,374.908417 349.170410,385.475830 
	C343.212372,438.816071 363.446350,483.612122 396.339111,523.764832 
	C414.884827,546.403870 437.181335,564.723450 463.394440,577.975464 
	C488.728546,590.783203 515.445862,597.776917 544.051697,596.028931 
	C548.319031,595.768127 552.546021,594.845764 558.175232,594.028687 
	C555.930298,596.165588 554.483093,597.543152 552.744080,599.020142 
	C543.544983,602.641663 534.648499,606.191528 525.727783,609.679626 
	C511.777985,615.134277 497.206268,617.291931 482.326141,618.042053 
	C450.112183,619.665894 420.172516,611.324890 392.204010,596.221741 
	C360.829285,579.279175 335.652161,555.544617 317.619324,524.400085 
	C302.406982,498.126892 294.981018,469.976196 297.168732,439.787415 
	C299.528931,407.218689 312.184692,379.301758 338.068542,358.331024 
	C343.202423,354.171570 348.691315,350.452026 353.947906,346.439758 
	C354.541229,345.986938 354.686523,344.947205 354.829834,343.954163 
	C356.779297,342.774658 358.938446,341.820526 361.453796,340.817657 
z"/>
<path fill="#269CBF" opacity="1.000000" stroke="none" 
	d="
M617.841797,469.704712 
	C617.859070,470.632324 617.474121,471.392151 617.704102,471.825317 
	C625.348999,486.221069 631.169434,501.275787 633.332703,517.498291 
	C637.426880,548.201050 634.908875,578.162170 623.028503,607.099182 
	C611.278320,635.718811 593.077576,659.809631 570.135864,680.034241 
	C543.626526,703.403809 512.981262,719.244019 477.292267,722.732117 
	C437.736786,726.598145 402.515900,716.067932 373.526703,687.954224 
	C367.364410,681.978088 361.991150,675.192749 356.162994,668.864380 
	C354.844452,667.432739 353.144470,666.352417 351.276581,665.036011 
	C350.373718,663.810730 349.814331,662.659668 348.833069,660.640625 
	C351.336639,661.386353 353.026794,661.771179 354.629578,662.384460 
	C399.236267,679.453125 443.513184,678.347290 486.800201,658.458862 
	C539.624390,634.188599 578.048584,594.884460 602.682678,542.426453 
	C612.061584,522.454346 617.318848,501.143677 616.102051,478.717743 
	C615.900391,475.001190 615.434387,471.298981 614.974121,466.334625 
	C616.492432,468.017181 617.109375,468.700897 617.841797,469.704712 
z"/>
<path fill="#E7AD37" opacity="1.000000" stroke="none" 
	d="
M414.136169,528.307495 
	C413.997742,526.926514 414.276611,525.724121 413.872742,524.830261 
	C403.510834,501.897278 401.094330,477.599945 403.260803,453.021057 
	C405.120850,431.918243 411.294525,411.697754 419.790527,392.147034 
	C431.840759,364.417297 449.837830,341.099884 472.350403,321.435944 
	C493.624634,302.853699 518.246887,290.457458 546.541260,285.887726 
	C569.848267,282.123535 592.702454,283.475891 614.845154,291.539520 
	C640.868896,301.016479 663.156860,315.896790 679.144592,339.116638 
	C679.403687,339.492950 679.841309,339.774506 680.252502,339.993530 
	C680.332336,340.036072 680.676880,339.581573 680.990417,339.111511 
	C681.935059,341.067841 682.788635,343.269012 684.107666,346.670410 
	C681.193115,345.673035 679.476746,345.242340 677.893311,344.520142 
	C656.498840,334.762726 633.892090,332.014252 610.733887,333.560303 
	C554.244080,337.331635 509.709869,364.445038 472.561066,405.433350 
	C452.951111,427.070068 437.606995,451.319305 429.621429,479.700806 
	C424.323547,498.529999 421.458923,517.661804 423.799408,537.292419 
	C423.874634,537.923462 423.808960,538.571289 423.808960,540.330017 
	C420.220062,535.943909 417.227692,532.286926 414.136169,528.307495 
z"/>
<path fill="#366CC0" opacity="1.000000" stroke="none" 
	d="
M672.261963,664.892456 
	C672.013428,663.788879 672.148071,662.674927 672.866211,661.182739 
	C673.622925,659.841675 673.796143,658.878845 673.969360,657.916016 
	C673.969299,657.916016 673.966980,658.004761 673.922729,658.005615 
	C675.963928,653.828003 678.551941,649.822021 680.054321,645.443481 
	C691.029419,613.458252 688.632446,581.560242 678.112061,550.089722 
	C657.521729,488.496277 617.660400,444.298523 557.583496,418.977295 
	C537.189636,410.381653 515.730774,406.200287 493.554626,405.964355 
	C491.273468,405.940094 488.991821,405.961151 485.864685,405.961151 
	C487.053894,404.619293 487.654541,403.941559 488.559570,403.134155 
	C492.929260,401.660950 497.076141,400.521912 501.045868,398.938690 
	C519.200195,391.698303 538.114502,387.778168 557.558289,388.195923 
	C601.140503,389.132294 639.802002,403.616241 673.395508,431.692291 
	C700.146362,454.049500 719.667725,481.242920 729.688171,514.728882 
	C741.210449,553.233765 737.898560,590.124512 715.411926,624.234619 
	C706.294495,638.064819 695.302612,650.275574 681.112061,659.258301 
	C680.975586,659.344727 681.468628,660.425598 681.967590,661.106506 
	C679.059937,662.407837 675.852478,663.644897 672.261963,664.892456 
z"/>
<path fill="#D26A26" opacity="1.000000" stroke="none" 
	d="
M362.301270,339.803314 
	C362.436157,340.010040 362.328674,340.330475 361.986938,340.774719 
	C361.854736,340.571350 361.956818,340.244171 362.301270,339.803314 
z"/>
<path fill="#269CBF" opacity="1.000000" stroke="none" 
	d="
M351.581116,667.425598 
	C351.798187,667.370789 351.902130,667.505127 351.945618,667.821045 
	C351.729919,667.909790 351.590851,667.780518 351.581116,667.425598 
z"/>
<path fill="#000000" opacity="1.000000" stroke="none" 
	d="
M673.608765,658.010559 
	C673.796143,658.878845 673.622925,659.841675 673.086975,660.926758 
	C672.898865,660.067749 673.073486,659.086426 673.608765,658.010559 
z"/>
</svg>